<?xml version="1.0" encoding="UTF-8"?>
<svg version="1.1" xmlns="http://www.w3.org/2000/svg" width="670" height="730">
<path d="M0 0 C7.08994791 4.15920212 14.23727674 8.203952 21.41992188 12.20068359 C30.64926958 17.33693524 39.79229313 22.60280983 48.90039062 27.95068359 C56.02520377 32.12312319 63.20538329 36.18563603 70.41992188 40.20068359 C79.6492359 45.33699748 88.7922916 50.60280894 97.90039062 55.95068359 C105.02521211 60.12312807 112.20556715 64.18529465 119.41992188 68.20068359 C127.9230501 72.93760738 136.38321617 77.74056132 144.79492188 82.63818359 C145.75076172 83.193125 146.70660156 83.74806641 147.69140625 84.31982422 C157.96791585 90.3270751 167.81832378 96.50044267 176.91992188 104.20068359 C178.13808594 105.21582031 178.13808594 105.21582031 179.38085938 106.25146484 C206.12349306 129.32436804 221.61542336 162.98679593 224.70315361 197.86762619 C225.1358504 204.52082903 225.10058204 211.18497082 225.12524414 217.84960938 C225.13484662 219.50929495 225.14485799 221.1689782 225.15524292 222.82865906 C225.18218268 227.32601495 225.20328793 231.82338105 225.22324491 236.32077265 C225.24539684 241.10431785 225.27268932 245.88783412 225.29930115 250.6713562 C225.34356301 258.75989413 225.38427558 266.84844361 225.42260742 274.93701172 C225.46130387 283.09946427 225.50275351 291.26189532 225.54760742 299.42431641 C225.55304396 300.41510043 225.5584805 301.40588446 225.56408179 302.42669225 C225.57503442 304.42174435 225.58598852 306.41679645 225.59694409 308.41184855 C225.69829491 326.92460543 225.78258226 345.43737001 225.8515873 363.95027542 C225.88801342 373.52970113 225.93538897 383.10889937 226.0038498 392.68815196 C226.04695274 398.76813722 226.08002354 404.84811599 226.10472029 410.92820394 C226.11900517 414.33800168 226.13988858 417.74740313 226.17138863 421.15710831 C226.48586749 455.86218276 221.08962202 488.68987775 199.91992188 517.20068359 C199.34242188 517.99990234 198.76492188 518.79912109 198.16992188 519.62255859 C181.87029156 541.12120892 160.52060043 553.85541019 137.57177734 567.09179688 C133.22061667 569.60198848 128.88323424 572.13558661 124.54638672 574.67041016 C121.61360756 576.38456817 118.6791515 578.09581874 115.74414062 579.80615234 C109.80174612 583.26930275 103.86072921 586.73481139 97.91992188 590.20068359 C91.97911454 593.6665558 86.03809763 597.13206444 80.09570312 600.59521484 C69.19513143 606.94902401 58.30315231 613.31723317 47.41992188 619.70068359 C35.57000739 626.65113293 23.70866938 633.58174132 11.83935547 640.49902344 C7.86860107 642.81347052 3.89864623 645.12928644 -0.07104492 647.44555664 C-2.06820206 648.61047045 -4.06575731 649.77470199 -6.0637207 650.93823242 C-11.17204759 653.91415557 -16.27263568 656.90223017 -21.36132812 659.91162109 C-60.03497841 682.7425438 -98.36057762 695.15548868 -143.47460938 684.16943359 C-160.98619832 679.56450451 -176.33662448 671.12306315 -191.80273438 661.91162109 C-197.99877246 658.22508947 -204.27657608 654.6994051 -210.58007812 651.20068359 C-219.81002138 646.06552834 -228.95247528 640.79854214 -238.06054688 635.45068359 C-245.18536002 631.278244 -252.36553954 627.21573116 -259.58007812 623.20068359 C-268.80939215 618.0643697 -277.95244785 612.79855825 -287.06054688 607.45068359 C-294.18536002 603.278244 -301.36553954 599.21573116 -308.58007812 595.20068359 C-317.80365028 590.06756518 -326.94255693 584.80753933 -336.04296875 579.45947266 C-343.33325229 575.18726119 -350.69232907 571.05158128 -358.08007812 566.95068359 C-396.92520871 545.30071881 -425.69967905 518.40392137 -438.41650391 474.62207031 C-442.16261021 460.9525036 -443.22083524 447.52080255 -443.28540039 433.40454102 C-443.29500211 432.03500151 -443.30500523 430.66546478 -443.31537342 429.29593086 C-443.34230547 425.57885314 -443.3633991 421.86176294 -443.38336325 418.14464211 C-443.40562415 414.17723261 -443.43313763 410.20985884 -443.45986938 406.24247742 C-443.51622356 397.71796202 -443.56538255 389.19341468 -443.61291122 380.66884613 C-443.6423412 375.39683836 -443.67341923 370.12484105 -443.70474243 364.85284424 C-443.8416005 341.7220049 -443.96207841 318.59110848 -444.06954002 295.46011448 C-444.07972106 293.27723957 -444.09004414 291.09436539 -444.10041809 288.91149139 C-444.17158442 273.90273827 -444.23090511 258.89406821 -444.25631714 243.88516235 C-444.26286265 240.04559901 -444.2736741 236.20608728 -444.2883606 232.36654663 C-444.30481257 227.94527095 -444.31119732 223.52409769 -444.30933762 219.10279274 C-444.31011949 217.54460932 -444.31410378 215.98642276 -444.32194901 214.4282589 C-444.38721184 200.60339906 -443.39930112 187.00273771 -439.39257812 173.70068359 C-439.00175049 172.37605103 -439.00175049 172.37605103 -438.60302734 171.0246582 C-433.28144266 153.56310987 -425.13426756 137.00614206 -413.08007812 123.20068359 C-412.335 122.34603516 -411.58992188 121.49138672 -410.82226562 120.61083984 C-408.60473564 118.11142045 -406.35380261 115.64899022 -404.08007812 113.20068359 C-403.52964844 112.59611328 -402.97921875 111.99154297 -402.41210938 111.36865234 C-391.23635317 99.58581803 -377.20256777 91.9495497 -363.23535156 84.00195312 C-358.26724508 81.16578092 -353.33072143 78.2761027 -348.39257812 75.38818359 C-346.39911787 74.2253729 -344.40562766 73.06261355 -342.41210938 71.89990234 C-335.46277906 67.84256341 -328.52124914 63.77195833 -321.58007812 59.70068359 C-309.73016364 52.75023426 -297.86882563 45.81962587 -285.99951172 38.90234375 C-281.02556633 36.00316334 -276.05289642 33.10179668 -271.08007812 30.20068359 C-269.08008403 29.03400681 -267.08008403 27.86734014 -265.08007812 26.70068359 C-264.09007812 26.12318359 -263.10007812 25.54568359 -262.08007812 24.95068359 C-251.08007813 18.53401693 -240.08007812 12.11735026 -229.08007812 5.70068359 C-228.08943359 5.12278076 -227.09878906 4.54487793 -226.078125 3.94946289 C-224.08472992 2.7867032 -222.09124083 1.62410468 -220.09765625 0.46166992 C-214.99580504 -2.51343674 -209.89578357 -5.49161026 -204.79882812 -8.47509766 C-199.78569067 -11.40862446 -194.7679476 -14.33407693 -189.74511719 -17.25097656 C-188.06365051 -18.22787851 -186.38317387 -19.20648838 -184.70410156 -20.1875 C-118.29803346 -58.91698476 -60.95332709 -35.82468349 0 0 Z " fill="#DB1E4F" transform="translate(444.080078125,41.79931640625)"/>
<path d="M0 0 C0.84954254 -0.00570007 1.69908508 -0.01140015 2.57437134 -0.01727295 C4.37150835 -0.02671605 6.16866263 -0.03325419 7.96582031 -0.03710938 C10.70929287 -0.04681391 13.45201577 -0.07784285 16.1953125 -0.109375 C17.94270389 -0.11590551 19.69010063 -0.12115579 21.4375 -0.125 C22.2553598 -0.1373468 23.0732196 -0.1496936 23.91586304 -0.16241455 C29.60695271 -0.1402549 32.96618013 0.89999719 37.1640625 4.953125 C39.81052128 9.96746796 38.23643705 15.37199668 36.65022278 20.50631714 C36.4034227 21.26993561 36.15662262 22.03355408 35.90234375 22.8203125 C35.64784958 23.63573517 35.39335541 24.45115784 35.13114929 25.29129028 C34.31807372 27.88992932 33.49158191 30.48405365 32.6640625 33.078125 C31.86076238 35.62655884 31.06029131 38.17586889 30.26010132 40.72528076 C29.72843233 42.41840338 29.19556814 44.11115113 28.66152954 45.80352783 C26.98109372 51.14141321 25.36371944 56.49379889 23.80078125 61.8671875 C21.06789726 71.25939369 18.11361992 80.57819815 15.15380859 89.90087891 C12.41024515 98.55069805 9.73938715 107.21391594 7.2010498 115.92628479 C5.22384426 122.69136886 3.11356185 129.41173107 0.98699951 136.131073 C-2.11447626 145.93940446 -5.15958357 155.74620086 -7.82080078 165.68481445 C-9.81934935 173.04263335 -12.20700728 180.27220565 -14.56030273 187.52270508 C-17.27508467 195.9277313 -19.77248068 204.38310277 -22.20996094 212.87207031 C-24.12616802 219.51154042 -26.23491912 226.04375695 -28.47265625 232.58203125 C-29.80848578 236.69603117 -30.9582217 240.84084784 -32.0859375 245.015625 C-33.74411848 251.15417166 -35.59064901 257.18684261 -37.6484375 263.203125 C-39.6638748 269.09636572 -41.47264317 274.99996248 -43.0859375 281.015625 C-44.93556167 287.88206931 -47.02748843 294.64333856 -49.2734375 301.390625 C-49.70740845 302.70027222 -49.70740845 302.70027222 -50.15014648 304.03637695 C-50.95827606 306.43476437 -51.79765747 308.81959047 -52.6484375 311.203125 C-52.86854492 311.87166504 -53.08865234 312.54020508 -53.31542969 313.22900391 C-55.05954873 318.01960243 -57.20214963 319.83724208 -61.6484375 322.203125 C-64.62644698 322.75745982 -67.53172513 322.76484566 -70.5546875 322.734375 C-71.39761353 322.7382019 -72.24053955 322.74202881 -73.10900879 322.74597168 C-74.88404542 322.74868316 -76.65912252 322.74137557 -78.43408203 322.72460938 C-81.14056044 322.70318735 -83.84438473 322.72443549 -86.55078125 322.75 C-88.28125582 322.74735659 -90.01172875 322.74223132 -91.7421875 322.734375 C-92.54547485 322.74247192 -93.34876221 322.75056885 -94.1763916 322.75891113 C-99.44407735 322.67163224 -102.47843522 321.70085315 -106.6484375 318.203125 C-109.32386404 314.18998519 -109.15046363 310.84428776 -108.6484375 306.203125 C-107.71968782 302.14272945 -106.45130939 298.21975584 -105.1484375 294.265625 C-104.40982453 291.94802236 -103.67155292 289.6303109 -102.93359375 287.3125 C-102.55348145 286.13365234 -102.17336914 284.95480469 -101.78173828 283.74023438 C-100.0003823 278.18050033 -98.29468579 272.59801168 -96.5859375 267.015625 C-95.91810581 264.84500991 -95.25013819 262.67443664 -94.58203125 260.50390625 C-92.76003632 254.57358029 -90.95207672 248.63905528 -89.1484375 242.703125 C-78.22056924 206.76682866 -78.22056924 206.76682866 -75.0234375 197.390625 C-72.73127873 190.64490942 -70.80305512 183.81677059 -68.87841797 176.9597168 C-67.08406712 170.60928009 -65.06579743 164.38463865 -62.9296875 158.140625 C-61.34116768 153.37506554 -60.00540902 148.53862757 -58.6484375 143.703125 C-56.94942511 137.64877629 -55.18398525 131.65318764 -53.1484375 125.703125 C-51.13412088 119.81462754 -49.38853658 113.88328562 -47.7109375 107.890625 C-45.64581463 100.51972491 -43.37938563 93.26029743 -40.90087891 86.01904297 C-38.64117083 79.34604985 -36.72697775 72.59160897 -34.828125 65.80859375 C-33.05192844 59.50356093 -31.0460373 53.32709885 -28.92578125 47.12890625 C-27.35927349 42.42938298 -26.04727978 37.65958344 -24.7109375 32.890625 C-22.74149681 25.92329999 -20.72674343 18.97552243 -18.5234375 12.078125 C-18.17937866 10.9502356 -18.17937866 10.9502356 -17.82836914 9.79956055 C-16.50965531 5.76477372 -15.46786372 3.23916154 -11.6484375 1.203125 C-7.76138918 -0.09255777 -4.05292397 0.02095664 0 0 Z " fill="#FEFDFD" transform="translate(374.6484375,192.796875)"/>
<path d="M0 0 C2.42480586 1.88596011 3.72483935 3.07560613 5.25 5.75 C5.56713576 8.72480719 5.71801334 11.48521873 5.71875 14.4609375 C5.72636353 15.30669342 5.73397705 16.15244934 5.74182129 17.02383423 C5.75261246 18.81078138 5.75547938 20.59779156 5.75097656 22.38476562 C5.75000565 25.10915239 5.79160511 27.8307083 5.8359375 30.5546875 C5.841146 32.29426499 5.84383267 34.03385222 5.84375 35.7734375 C5.86014526 36.58299896 5.87654053 37.39256042 5.89343262 38.22665405 C5.84180921 42.48418847 5.45739801 44.42481952 3.10180664 48.11816406 C0.13583721 50.85535698 -2.26202066 52.28623549 -5.97265625 53.8359375 C-6.57869186 54.09489807 -7.18472748 54.35385864 -7.80912781 54.6206665 C-9.11977304 55.17851461 -10.43357153 55.72900135 -11.75012207 56.27276611 C-13.84885254 57.14002191 -15.93829995 58.02683247 -18.02636719 58.91943359 C-21.01590469 60.19638941 -24.00814804 61.46665978 -27.00244141 62.73242188 C-34.39512942 65.86562959 -41.75204448 69.07995966 -49.09860229 72.31964111 C-51.46854918 73.36117809 -53.84353656 74.39054012 -56.21899414 75.41943359 C-57.68272899 76.06285231 -59.14620273 76.70686547 -60.609375 77.3515625 C-61.27466721 77.63646545 -61.93995941 77.92136841 -62.62541199 78.21490479 C-67.08464337 80.20082053 -70.52444238 82.29888477 -72.75 86.75 C-73.14404375 90.29639373 -73.11950507 92.1603208 -71.20410156 95.21704102 C-68.21882268 98.2982456 -65.05274543 99.81395662 -61.171875 101.46484375 C-60.04412155 101.96362785 -60.04412155 101.96362785 -58.89358521 102.4724884 C-56.43431109 103.55660014 -53.9672575 104.62169996 -51.5 105.6875 C-49.79513749 106.43711756 -48.09087834 107.18810877 -46.38720703 107.94042969 C-38.79504755 111.28462388 -31.18010146 114.57452449 -23.54736328 117.82496643 C-20.59891533 119.0816056 -17.65406225 120.34656171 -14.70910645 121.61135864 C-12.66199519 122.48422563 -10.60836137 123.34013055 -8.55371094 124.19506836 C-7.30375702 124.7283494 -6.05406688 125.26224931 -4.8046875 125.796875 C-3.72687012 126.24901367 -2.64905273 126.70115234 -1.53857422 127.16699219 C1.77826747 129.04988498 3.33667881 130.43626772 5.25 133.75 C5.80764447 136.69457567 5.81119909 139.56828515 5.78125 142.55859375 C5.7850769 143.40293472 5.78890381 144.2472757 5.79284668 145.11720276 C5.79556165 146.8982157 5.78822946 148.67926879 5.77148438 150.46020508 C5.75009411 153.175554 5.77128481 155.88824932 5.796875 158.60351562 C5.79423113 160.33854747 5.78910491 162.07357767 5.78125 163.80859375 C5.78934692 164.61501816 5.79744385 165.42144257 5.80578613 166.25230408 C5.71879782 171.52472021 4.74498321 174.56687058 1.25 178.75 C-2.979533 180.8647665 -7.90532607 180.34018216 -12.28955078 178.9375 C-15.00949755 177.78858792 -17.66012946 176.54726097 -20.3125 175.25 C-21.76910034 174.56224487 -21.76910034 174.56224487 -23.25512695 173.8605957 C-26.09729654 172.51099357 -28.92595786 171.13707554 -31.75 169.75 C-32.45543945 169.40372559 -33.16087891 169.05745117 -33.88769531 168.70068359 C-37.0273366 167.15021359 -40.1537498 165.57467949 -43.27734375 163.9921875 C-58.31917151 156.4066039 -73.5863848 149.25875032 -88.875 142.1875 C-92.34050044 140.5799766 -95.80563131 138.97166076 -99.27050781 137.36279297 C-101.62779042 136.27015973 -103.98656359 135.18073756 -106.34667969 134.09423828 C-109.82035497 132.49184106 -113.28583369 130.87283218 -116.75 129.25 C-118.32612061 128.52961548 -118.32612061 128.52961548 -119.93408203 127.79467773 C-125.81858161 125.01656474 -129.75204337 122.74591326 -132.75 116.75 C-132.86090712 115.0256674 -132.90918287 113.29713969 -132.92700195 111.56933594 C-132.93983719 110.48771179 -132.95267242 109.40608765 -132.96589661 108.29168701 C-132.97328354 107.11777405 -132.98067047 105.94386108 -132.98828125 104.734375 C-132.996353 103.53065247 -133.00442474 102.32692993 -133.01274109 101.08673096 C-133.02659204 98.5345606 -133.03730965 95.98237163 -133.04516602 93.43017578 C-133.06236806 89.52991518 -133.10624579 85.63050431 -133.15039062 81.73046875 C-133.16051819 79.25261041 -133.16903409 76.77474485 -133.17578125 74.296875 C-133.20204338 72.54815094 -133.20204338 72.54815094 -133.22883606 70.76409912 C-133.20072919 60.25145228 -133.20072919 60.25145228 -128.75 55.75 C-126.3632102 54.1137955 -123.87601634 52.89000492 -121.25 51.68359375 C-120.51069244 51.32796356 -119.77138489 50.97233337 -119.00967407 50.60592651 C-116.59706777 49.45038547 -114.174019 48.31887735 -111.75 47.1875 C-110.06234576 46.3850576 -108.37533935 45.58125138 -106.68896484 44.77612305 C-101.72015753 42.41069108 -96.73739401 40.07593945 -91.75 37.75 C-91.06893188 37.43188354 -90.38786377 37.11376709 -89.68615723 36.78601074 C-84.4702937 34.3503932 -79.24947112 31.92571994 -74.02075195 29.51782227 C-65.94805669 25.79596863 -57.92942555 21.9728878 -49.93206787 18.09265137 C-47.96073076 17.13627025 -45.9885042 16.18174464 -44.01611328 15.22753906 C-37.97071289 12.30005855 -31.93771791 9.35131301 -25.92578125 6.35546875 C-24.87688721 5.83871582 -23.82799316 5.32196289 -22.74731445 4.78955078 C-20.81442957 3.83704174 -18.88671533 2.87393171 -16.96557617 1.89794922 C-11.15285369 -0.94952335 -6.2732591 -2.85148141 0 0 Z " fill="#FEFDFD" transform="translate(258.75,274.25)"/>
<path d="M0 0 C2.09800809 0.87937889 4.11851199 1.84948072 6.1479187 2.87728882 C6.91374771 3.24710876 7.67957672 3.61692871 8.46861267 3.99795532 C10.98312012 5.21652807 13.48500115 6.45901393 15.98776245 7.70150757 C17.76729334 8.56852117 19.54774795 9.43364112 21.32907104 10.29696655 C25.02865898 12.09181185 28.72414472 13.89472785 32.41696167 15.70346069 C40.10665997 19.46230608 47.84321561 23.12144936 55.58035278 26.78134155 C58.04911995 27.95096629 60.51560769 29.12526597 62.98141479 30.30111694 C70.63810847 33.95022591 78.30387827 37.57551291 86.00674438 41.12632751 C89.53427262 42.7533807 93.05686359 44.39097362 96.57925415 46.02911377 C98.24976557 46.80215139 99.92278252 47.56980067 101.59841919 48.33166504 C103.91566399 49.38553134 106.22371166 50.45751247 108.5307312 51.53353882 C109.54817162 51.98711761 109.54817162 51.98711761 110.58616638 52.44985962 C115.00792069 54.54128837 118.87288988 56.83680165 120.92526245 61.38900757 C121.62217867 65.61639704 121.57851079 69.77319589 121.51901245 74.04916382 C121.51905273 75.27179428 121.51909302 76.49442474 121.51913452 77.75410461 C121.51378249 80.33371127 121.49621372 82.91331768 121.46725464 85.49276733 C121.42537275 89.44110923 121.42619042 93.38774643 121.43307495 97.33627319 C121.42258322 99.84474859 121.40964522 102.35321519 121.39401245 104.86166382 C121.39381104 106.04196671 121.39360962 107.22226959 121.3934021 108.43833923 C121.37749023 109.53975754 121.36157837 110.64117584 121.34518433 111.77597046 C121.33676514 112.74160416 121.32834595 113.70723785 121.31967163 114.70213318 C120.84929702 117.90651469 119.82544367 119.78368702 117.92526245 122.38900757 C115.15182495 124.13510132 115.15182495 124.13510132 111.55026245 125.82650757 C110.86673706 126.15304321 110.18321167 126.47957886 109.47897339 126.81600952 C107.88782675 127.57563723 106.29383792 128.32932767 104.69772339 129.07846069 C101.58719147 130.54881428 98.49416183 132.05264322 95.40182495 133.56088257 C82.20380967 139.98900681 68.94369921 146.26376499 55.61251831 152.41195679 C47.2850792 156.26401806 39.01053652 160.21527982 30.75650024 164.22177124 C28.76213759 165.1896778 26.7669072 166.15577377 24.77145386 167.12142944 C19.31524777 169.76355779 13.86402174 172.41382768 8.4369812 175.11557007 C6.93314173 175.85268549 5.42924248 176.58967899 3.92526245 177.32650757 C3.29209106 177.65046509 2.65891968 177.97442261 2.00656128 178.30819702 C-2.15822972 180.32879611 -5.4720442 180.86685282 -10.07473755 180.38900757 C-13.11646144 178.8014943 -15.52625592 176.48597082 -17.07473755 173.38900757 C-17.4074242 167.75503139 -17.473897 162.12064467 -17.53469849 156.47787476 C-17.56129384 154.59219955 -17.60220678 152.70666952 -17.65774536 150.82162476 C-17.73701682 148.09869802 -17.77002663 145.37854512 -17.79348755 142.65463257 C-17.82647949 141.81692322 -17.85947144 140.97921387 -17.89346313 140.11611938 C-17.88183575 136.69584687 -17.81476331 134.34336319 -15.67506409 131.58395386 C-12.20937728 128.48095624 -8.4369396 126.30722131 -4.1723938 124.45150757 C-3.04970093 123.9557019 -1.92700806 123.45989624 -0.77029419 122.94906616 C0.4286145 122.43424683 1.62752319 121.91942749 2.86276245 121.38900757 C4.12830778 120.83494964 5.39335343 120.27974915 6.65792847 119.72348022 C10.03248724 118.24244359 13.41323362 116.77608015 16.79537964 115.31246948 C21.17840025 113.41210549 25.55354451 111.49367995 29.92979431 109.57778931 C33.44782724 108.0378851 36.96689201 106.50051814 40.48947144 104.97103882 C41.14274414 104.68677032 41.79601685 104.40250183 42.46908569 104.10961914 C44.23454688 103.34152777 46.00065673 102.57492787 47.76681519 101.80844116 C49.94101304 100.83133779 52.0886733 99.79368565 54.21066284 98.70785522 C56.92526245 97.38900757 56.92526245 97.38900757 58.92526245 97.38900757 C59.87458988 94.54102527 60.18393 92.42693361 60.30026245 89.45150757 C60.37373901 88.16953491 60.37373901 88.16953491 60.44869995 86.86166382 C59.69037182 83.27941227 57.88660271 82.47761027 54.92526245 80.38900757 C52.58336759 79.21059192 50.28332872 78.13032243 47.87838745 77.10385132 C47.19806458 76.8061937 46.5177417 76.50853607 45.81680298 76.20185852 C43.60593058 75.23640747 41.39065911 74.28152477 39.17526245 73.32650757 C37.64237061 72.65883003 36.10982102 71.99036622 34.5776062 71.32113647 C31.49397666 69.97549065 28.40872033 68.63370261 25.32174683 67.29574585 C19.18248925 64.63465517 13.05304769 61.95140891 6.92526245 59.26400757 C5.9497644 58.83982544 4.97426636 58.41564331 3.96920776 57.97860718 C1.27868157 56.80144319 -1.3998796 55.60130284 -4.07473755 54.38900757 C-4.9977063 53.98069702 -5.92067505 53.57238647 -6.87161255 53.15170288 C-7.7636438 52.73759155 -8.65567505 52.32348022 -9.57473755 51.89682007 C-10.36880005 51.53475464 -11.16286255 51.17268921 -11.98098755 50.7996521 C-14.76518045 48.9238281 -15.74187746 47.48726083 -17.07473755 44.38900757 C-17.50296641 41.43699679 -17.51910792 38.52455839 -17.5083313 35.54525757 C-17.51619408 34.2751886 -17.51619408 34.2751886 -17.5242157 32.97946167 C-17.53062192 31.19427586 -17.52931705 29.40904776 -17.52078247 27.62387085 C-17.51226465 24.89768181 -17.54106408 22.17358399 -17.57278442 19.44760132 C-17.57439646 17.70932069 -17.57381885 15.97103637 -17.5708313 14.23275757 C-17.58206528 13.42117188 -17.59329926 12.60958618 -17.60487366 11.77340698 C-17.55594824 7.78731195 -17.36475797 5.84400567 -15.16873169 2.39877319 C-10.93621807 -1.66349241 -5.50205217 -1.62030722 0 0 Z " fill="#FEFDFD" transform="translate(423.0747375488281,270.6109924316406)"/>
</svg>
